<?xml version="1.0" encoding="UTF-8"?>
<svg xmlns="http://www.w3.org/2000/svg" xmlns:xlink="http://www.w3.org/1999/xlink" width="30pt" height="30pt" viewBox="0 0 30 30" version="1.1">
<g id="surface1">
<path style=" stroke:none;fill-rule:nonzero;fill:rgb(0%,0%,0%);fill-opacity:1;" d="M 17.027344 29.941406 L 12.210938 29.941406 C 11.40625 29.941406 10.753906 29.289062 10.753906 28.484375 L 10.753906 17.648438 L 7.945312 17.648438 C 7.140625 17.648438 6.488281 16.996094 6.488281 16.195312 L 6.488281 11.550781 C 6.488281 10.75 7.140625 10.097656 7.945312 10.097656 L 10.753906 10.097656 L 10.753906 7.769531 C 10.753906 5.464844 11.480469 3.503906 12.851562 2.097656 C 14.230469 0.6875 16.15625 -0.0585938 18.421875 -0.0585938 L 22.09375 -0.0507812 C 22.894531 -0.0507812 23.546875 0.601562 23.546875 1.402344 L 23.546875 5.714844 C 23.546875 6.515625 22.894531 7.167969 22.089844 7.167969 L 19.617188 7.171875 C 18.863281 7.171875 18.671875 7.320312 18.632812 7.367188 C 18.5625 7.445312 18.484375 7.660156 18.484375 8.257812 L 18.484375 10.097656 L 21.90625 10.097656 C 22.164062 10.097656 22.410156 10.160156 22.625 10.277344 C 23.089844 10.535156 23.375 11.023438 23.375 11.550781 L 23.375 16.195312 C 23.375 16.996094 22.71875 17.648438 21.917969 17.648438 L 18.484375 17.648438 L 18.484375 28.484375 C 18.484375 29.289062 17.828125 29.941406 17.027344 29.941406 Z M 12.515625 28.183594 L 16.722656 28.183594 L 16.722656 16.863281 C 16.722656 16.328125 17.160156 15.890625 17.695312 15.890625 L 21.613281 15.890625 L 21.613281 11.855469 L 17.695312 11.855469 C 17.15625 11.855469 16.722656 11.417969 16.722656 10.882812 L 16.722656 8.257812 C 16.722656 7.570312 16.792969 6.789062 17.3125 6.203125 C 17.9375 5.492188 18.929688 5.410156 19.617188 5.410156 L 21.785156 5.410156 L 21.785156 1.707031 L 18.421875 1.699219 C 14.777344 1.699219 12.515625 4.027344 12.515625 7.769531 L 12.515625 10.882812 C 12.515625 11.417969 12.078125 11.855469 11.542969 11.855469 L 8.25 11.855469 L 8.25 15.890625 L 11.542969 15.890625 C 12.078125 15.890625 12.515625 16.328125 12.515625 16.863281 Z M 22.089844 1.707031 Z M 22.089844 1.707031 "/>
</g>
</svg>
