<?xml version="1.0" encoding="UTF-8"?>
<svg xmlns="http://www.w3.org/2000/svg" xmlns:xlink="http://www.w3.org/1999/xlink" width="30pt" height="30pt" viewBox="0 0 30 30" version="1.1">
<g id="surface1">
<path style=" stroke:none;fill-rule:nonzero;fill:rgb(0%,0%,0%);fill-opacity:1;" d="M 21.285156 0 L 8.714844 0 C 3.910156 0 0 3.910156 0 8.714844 L 0 21.285156 C 0 26.089844 3.910156 30 8.714844 30 L 21.285156 30 C 26.089844 30 30 26.089844 30 21.285156 L 30 8.714844 C 30 3.910156 26.089844 0 21.285156 0 Z M 27.65625 21.285156 C 27.65625 24.796875 24.796875 27.65625 21.285156 27.65625 L 8.714844 27.65625 C 5.203125 27.65625 2.34375 24.796875 2.34375 21.285156 L 2.34375 8.714844 C 2.34375 5.203125 5.203125 2.34375 8.714844 2.34375 L 21.285156 2.34375 C 24.796875 2.34375 27.65625 5.203125 27.65625 8.714844 Z M 27.65625 21.285156 "/>
<path style=" stroke:none;fill-rule:nonzero;fill:rgb(0%,0%,0%);fill-opacity:1;" d="M 15 6.914062 C 10.542969 6.914062 6.914062 10.542969 6.914062 15 C 6.914062 19.457031 10.542969 23.085938 15 23.085938 C 19.457031 23.085938 23.085938 19.457031 23.085938 15 C 23.085938 10.542969 19.457031 6.914062 15 6.914062 Z M 15 20.742188 C 11.832031 20.742188 9.257812 18.167969 9.257812 15 C 9.257812 11.832031 11.832031 9.257812 15 9.257812 C 18.167969 9.257812 20.742188 11.832031 20.742188 15 C 20.742188 18.167969 18.167969 20.742188 15 20.742188 Z M 15 20.742188 "/>
<path style=" stroke:none;fill-rule:nonzero;fill:rgb(0%,0%,0%);fill-opacity:1;" d="M 24.375 6.796875 C 24.375 7.445312 23.851562 7.96875 23.203125 7.96875 C 22.554688 7.96875 22.03125 7.445312 22.03125 6.796875 C 22.03125 6.148438 22.554688 5.625 23.203125 5.625 C 23.851562 5.625 24.375 6.148438 24.375 6.796875 Z M 24.375 6.796875 "/>
</g>
</svg>
