<?xml version="1.0" encoding="UTF-8"?>
<svg xmlns="http://www.w3.org/2000/svg" xmlns:xlink="http://www.w3.org/1999/xlink" width="30pt" height="30pt" viewBox="0 0 30 30" version="1.1">
<g id="surface1">
<path style=" stroke:none;fill-rule:nonzero;fill:rgb(0%,0%,0%);fill-opacity:1;" d="M 30 6.03125 C 28.113281 6.121094 28.152344 6.113281 27.941406 6.128906 L 29.058594 2.9375 C 29.058594 2.9375 25.570312 4.222656 24.683594 4.453125 C 22.363281 2.363281 18.910156 2.273438 16.441406 3.789062 C 14.421875 5.03125 13.335938 7.164062 13.699219 9.660156 C 9.765625 9.113281 6.449219 7.25 3.832031 4.105469 L 3.003906 3.113281 L 2.386719 4.246094 C 1.605469 5.683594 1.34375 7.324219 1.65625 8.867188 C 1.78125 9.5 2 10.105469 2.296875 10.671875 L 1.589844 10.394531 L 1.503906 11.582031 C 1.417969 12.789062 1.820312 14.195312 2.578125 15.34375 C 2.792969 15.667969 3.066406 16.023438 3.414062 16.375 L 3.046875 16.320312 L 3.496094 17.679688 C 4.082031 19.464844 5.304688 20.847656 6.890625 21.613281 C 5.308594 22.289062 4.027344 22.714844 1.925781 23.40625 L 0 24.039062 L 1.777344 25.011719 C 2.457031 25.382812 4.851562 26.621094 7.214844 26.992188 C 12.476562 27.816406 18.398438 27.144531 22.382812 23.554688 C 25.742188 20.53125 26.84375 16.226562 26.617188 11.75 C 26.582031 11.074219 26.765625 10.425781 27.136719 9.929688 C 27.882812 8.9375 29.996094 6.039062 30 6.03125 Z M 25.734375 8.878906 C 25.113281 9.703125 24.804688 10.753906 24.863281 11.839844 C 25.09375 16.355469 23.863281 19.859375 21.210938 22.25 C 18.109375 25.042969 13.105469 26.136719 7.488281 25.257812 C 6.472656 25.097656 5.417969 24.738281 4.546875 24.382812 C 6.3125 23.777344 7.675781 23.234375 9.875 22.195312 L 12.945312 20.742188 L 9.554688 20.523438 C 7.929688 20.421875 6.578125 19.632812 5.746094 18.355469 C 6.1875 18.332031 6.613281 18.257812 7.039062 18.140625 L 10.269531 17.242188 L 7.011719 16.441406 C 5.425781 16.054688 4.523438 15.105469 4.042969 14.378906 C 3.730469 13.902344 3.523438 13.414062 3.402344 12.960938 C 3.730469 13.046875 4.109375 13.109375 4.722656 13.171875 L 7.742188 13.46875 L 5.351562 11.605469 C 3.628906 10.261719 2.9375 8.242188 3.445312 6.304688 C 8.820312 11.878906 15.132812 11.460938 15.769531 11.609375 C 15.628906 10.25 15.625 10.246094 15.585938 10.117188 C 14.773438 7.238281 16.558594 5.78125 17.363281 5.285156 C 19.042969 4.253906 21.707031 4.097656 23.554688 5.796875 C 23.953125 6.164062 24.492188 6.308594 25 6.183594 C 25.453125 6.070312 25.824219 5.953125 26.1875 5.824219 L 25.429688 7.988281 L 26.398438 7.988281 C 26.214844 8.234375 25.996094 8.527344 25.734375 8.878906 Z M 25.734375 8.878906 "/>
</g>
</svg>
