<?xml version="1.0" encoding="UTF-8"?>
<svg xmlns="http://www.w3.org/2000/svg" xmlns:xlink="http://www.w3.org/1999/xlink" width="90pt" height="90pt" viewBox="0 0 90 90" version="1.1">
<g id="surface1">
<path style=" stroke:none;fill-rule:nonzero;fill:rgb(0%,0%,0%);fill-opacity:1;" d="M 56.261719 14.367188 L 46.09375 7.941406 L 34.785156 9.441406 L 44.953125 15.867188 Z M 56.261719 14.367188 "/>
<path style=" stroke:none;fill-rule:nonzero;fill:rgb(0%,0%,0%);fill-opacity:1;" d="M 71.480469 12.34375 L 61.308594 5.921875 L 50 7.421875 L 60.171875 13.847656 Z M 71.480469 12.34375 "/>
<path style=" stroke:none;fill-rule:nonzero;fill:rgb(0%,0%,0%);fill-opacity:1;" d="M 55.445312 24.796875 L 44.097656 24.796875 L 34.625 32.585938 L 45.972656 32.585938 Z M 55.445312 24.796875 "/>
<path style=" stroke:none;fill-rule:nonzero;fill:rgb(0%,0%,0%);fill-opacity:1;" d="M 70.800781 24.796875 L 59.449219 24.796875 L 49.976562 32.585938 L 61.324219 32.585938 Z M 70.800781 24.796875 "/>
<path style=" stroke:none;fill-rule:nonzero;fill:rgb(0%,0%,0%);fill-opacity:1;" d="M 88.042969 2.371094 L 80.4375 3.378906 L 88.882812 8.71875 Z M 88.042969 2.371094 "/>
<path style=" stroke:none;fill-rule:nonzero;fill:rgb(0%,0%,0%);fill-opacity:1;" d="M 1.109375 32.585938 L 15.273438 32.585938 L 24.746094 24.796875 L 1.109375 24.796875 Z M 1.109375 32.585938 "/>
<path style=" stroke:none;fill-rule:nonzero;fill:rgb(0%,0%,0%);fill-opacity:1;" d="M 76.527344 3.898438 L 65.21875 5.402344 L 75.390625 11.828125 L 86.699219 10.324219 Z M 76.527344 3.898438 "/>
<path style=" stroke:none;fill-rule:nonzero;fill:rgb(0%,0%,0%);fill-opacity:1;" d="M 40.097656 24.796875 L 28.75 24.796875 L 19.277344 32.585938 L 30.625 32.585938 Z M 40.097656 24.796875 "/>
<path style=" stroke:none;fill-rule:nonzero;fill:rgb(0%,0%,0%);fill-opacity:1;" d="M 86.148438 24.796875 L 74.800781 24.796875 L 65.328125 32.585938 L 76.675781 32.585938 Z M 86.148438 24.796875 "/>
<path style=" stroke:none;fill-rule:nonzero;fill:rgb(0%,0%,0%);fill-opacity:1;" d="M 1.109375 87.75 L 89.957031 87.75 L 89.957031 35.113281 L 1.109375 35.113281 Z M 44.902344 39.113281 C 57.226562 39.113281 67.21875 49.105469 67.21875 61.433594 C 67.21875 73.757812 57.226562 83.75 44.902344 83.75 C 32.574219 83.75 22.582031 73.757812 22.582031 61.433594 C 22.597656 49.113281 32.582031 39.128906 44.902344 39.113281 Z M 44.902344 39.113281 "/>
<path style=" stroke:none;fill-rule:nonzero;fill:rgb(0%,0%,0%);fill-opacity:1;" d="M 89.957031 32.585938 L 89.957031 24.972656 L 80.679688 32.585938 Z M 89.957031 32.585938 "/>
<path style=" stroke:none;fill-rule:nonzero;fill:rgb(0%,0%,0%);fill-opacity:1;" d="M 44.902344 81.222656 C 55.832031 81.222656 64.691406 72.363281 64.691406 61.433594 C 64.691406 50.5 55.832031 41.640625 44.902344 41.640625 C 33.972656 41.640625 25.109375 50.5 25.109375 61.433594 C 25.121094 72.355469 33.976562 81.210938 44.902344 81.222656 Z M 39.425781 53.09375 C 39.4375 52.625 39.699219 52.199219 40.113281 51.980469 C 40.53125 51.761719 41.035156 51.785156 41.433594 52.042969 L 53.980469 60.378906 C 54.332031 60.613281 54.542969 61.007812 54.542969 61.433594 C 54.542969 61.855469 54.332031 62.25 53.976562 62.484375 L 41.425781 70.820312 C 41.21875 70.960938 40.972656 71.03125 40.722656 71.03125 C 40.511719 71.03125 40.304688 70.980469 40.117188 70.882812 C 39.699219 70.664062 39.4375 70.238281 39.425781 69.769531 Z M 39.425781 53.09375 "/>
<path style=" stroke:none;fill-rule:nonzero;fill:rgb(0%,0%,0%);fill-opacity:1;" d="M 41.042969 16.386719 L 30.875 9.960938 L 19.566406 11.460938 L 29.734375 17.886719 Z M 41.042969 16.386719 "/>
<path style=" stroke:none;fill-rule:nonzero;fill:rgb(0%,0%,0%);fill-opacity:1;" d="M 41.953125 55.449219 L 41.953125 67.414062 L 50.957031 61.433594 Z M 41.953125 55.449219 "/>
<path style=" stroke:none;fill-rule:nonzero;fill:rgb(0%,0%,0%);fill-opacity:1;" d="M 15.65625 11.980469 L 0 14.058594 L 1.015625 21.703125 L 25.828125 18.40625 Z M 15.65625 11.980469 "/>
</g>
</svg>
