<?xml version="1.0" encoding="UTF-8"?>
<svg xmlns="http://www.w3.org/2000/svg" xmlns:xlink="http://www.w3.org/1999/xlink" width="77pt" height="77pt" viewBox="0 0 77 77" version="1.1">
<g id="surface1">
<path style=" stroke:none;fill-rule:nonzero;fill:rgb(0%,0%,0%);fill-opacity:1;" d="M 48.136719 12.289062 L 39.433594 6.792969 L 29.757812 8.078125 L 38.460938 13.574219 Z M 48.136719 12.289062 "/>
<path style=" stroke:none;fill-rule:nonzero;fill:rgb(0%,0%,0%);fill-opacity:1;" d="M 61.15625 10.5625 L 52.453125 5.066406 L 42.777344 6.351562 L 51.480469 11.847656 Z M 61.15625 10.5625 "/>
<path style=" stroke:none;fill-rule:nonzero;fill:rgb(0%,0%,0%);fill-opacity:1;" d="M 47.4375 21.214844 L 37.730469 21.214844 L 29.625 27.878906 L 39.332031 27.878906 Z M 47.4375 21.214844 "/>
<path style=" stroke:none;fill-rule:nonzero;fill:rgb(0%,0%,0%);fill-opacity:1;" d="M 60.574219 21.214844 L 50.863281 21.214844 L 42.757812 27.878906 L 52.46875 27.878906 Z M 60.574219 21.214844 "/>
<path style=" stroke:none;fill-rule:nonzero;fill:rgb(0%,0%,0%);fill-opacity:1;" d="M 75.324219 2.027344 L 68.816406 2.890625 L 76.042969 7.457031 Z M 75.324219 2.027344 "/>
<path style=" stroke:none;fill-rule:nonzero;fill:rgb(0%,0%,0%);fill-opacity:1;" d="M 0.949219 27.878906 L 13.066406 27.878906 L 21.171875 21.214844 L 0.949219 21.214844 Z M 0.949219 27.878906 "/>
<path style=" stroke:none;fill-rule:nonzero;fill:rgb(0%,0%,0%);fill-opacity:1;" d="M 65.472656 3.335938 L 55.800781 4.621094 L 64.5 10.117188 L 74.175781 8.835938 Z M 65.472656 3.335938 "/>
<path style=" stroke:none;fill-rule:nonzero;fill:rgb(0%,0%,0%);fill-opacity:1;" d="M 34.304688 21.214844 L 24.597656 21.214844 L 16.492188 27.878906 L 26.199219 27.878906 Z M 34.304688 21.214844 "/>
<path style=" stroke:none;fill-rule:nonzero;fill:rgb(0%,0%,0%);fill-opacity:1;" d="M 73.707031 21.214844 L 63.996094 21.214844 L 55.890625 27.878906 L 65.601562 27.878906 Z M 73.707031 21.214844 "/>
<path style=" stroke:none;fill-rule:nonzero;fill:rgb(0%,0%,0%);fill-opacity:1;" d="M 0.949219 75.074219 L 76.964844 75.074219 L 76.964844 30.042969 L 0.949219 30.042969 Z M 38.414062 33.464844 C 48.960938 33.464844 57.507812 42.011719 57.507812 52.558594 C 57.507812 63.105469 48.960938 71.652344 38.414062 71.652344 C 27.871094 71.652344 19.320312 63.105469 19.320312 52.558594 C 19.332031 42.019531 27.875 33.476562 38.414062 33.464844 Z M 38.414062 33.464844 "/>
<path style=" stroke:none;fill-rule:nonzero;fill:rgb(0%,0%,0%);fill-opacity:1;" d="M 76.964844 27.878906 L 76.964844 21.363281 L 69.027344 27.878906 Z M 76.964844 27.878906 "/>
<path style=" stroke:none;fill-rule:nonzero;fill:rgb(0%,0%,0%);fill-opacity:1;" d="M 38.414062 69.492188 C 47.765625 69.492188 55.347656 61.910156 55.347656 52.558594 C 55.347656 43.207031 47.765625 35.625 38.414062 35.625 C 29.0625 35.625 21.484375 43.207031 21.484375 52.558594 C 21.492188 61.90625 29.066406 69.480469 38.414062 69.492188 Z M 33.730469 45.425781 C 33.738281 45.023438 33.964844 44.660156 34.320312 44.472656 C 34.675781 44.285156 35.109375 44.304688 35.449219 44.523438 L 46.183594 51.660156 C 46.484375 51.859375 46.664062 52.195312 46.664062 52.558594 C 46.664062 52.921875 46.484375 53.257812 46.179688 53.457031 L 35.441406 60.59375 C 35.265625 60.710938 35.054688 60.773438 34.839844 60.773438 C 34.660156 60.773438 34.480469 60.726562 34.320312 60.644531 C 33.964844 60.457031 33.738281 60.09375 33.730469 59.691406 Z M 33.730469 45.425781 "/>
<path style=" stroke:none;fill-rule:nonzero;fill:rgb(0%,0%,0%);fill-opacity:1;" d="M 35.117188 14.019531 L 26.414062 8.523438 L 16.738281 9.808594 L 25.441406 15.304688 Z M 35.117188 14.019531 "/>
<path style=" stroke:none;fill-rule:nonzero;fill:rgb(0%,0%,0%);fill-opacity:1;" d="M 35.894531 47.441406 L 35.894531 57.675781 L 43.59375 52.558594 Z M 35.894531 47.441406 "/>
<path style=" stroke:none;fill-rule:nonzero;fill:rgb(0%,0%,0%);fill-opacity:1;" d="M 13.394531 10.25 L 0 12.027344 L 0.867188 18.566406 L 22.097656 15.746094 Z M 13.394531 10.25 "/>
</g>
</svg>
