<?xml version="1.0" standalone="no"?>
<!DOCTYPE svg PUBLIC "-//W3C//DTD SVG 1.0//EN" "http://www.w3.org/TR/2001/REC-SVG-20010904/DTD/svg10.dtd">
<svg xmlns="http://www.w3.org/2000/svg" xmlns:xlink="http://www.w3.org/1999/xlink" id="body_1" width="147" height="53">

<defs>
    <clipPath  id="1">

    <path id=""  clip-rule="evenodd" transform="matrix(1 0 0 1 0 0)"  d="M0 40L0 0L0 0L110 0L110 0L110 40L110 40L0 40z" />    </clipPath>
</defs>

<g transform="matrix(1.3333 0 0 1.3333 0 0)">
	<g clip-path="url(#1)" >
    <path id=""  transform="matrix(1 0 0 -1 0 40)"  d="M0.292969 39.70703L0.292969 39.70703L0.292969 39.70703L109.71875 39.70703L109.71875 39.70703L109.71875 0.28125L109.71875 0.28125L0.292969 0.28125z" stroke="none" fill="#000000" fill-rule="nonzero" />
    <path id=""  transform="matrix(1 0 0 -1 0 40)"  d="M0 0L0 0L0 0L110 0L110 0L110 40L110 40L0 40zM0.574219 39.421875L0.574219 39.421875L0.574219 39.421875L109.42578 39.421875L109.42578 39.421875L109.42578 0.578125L109.42578 0.578125L0.574219 0.578125z" stroke="none" fill="#FFFFFF" fill-rule="nonzero" />
    <path id=""  transform="matrix(1 0 0 -1 0 40)"  d="M8.976562 31.207031L8.976562 31.207031L8.976562 31.207031L19.644531 31.207031L19.644531 31.207031L19.644531 20.460938L19.644531 20.460938L8.976562 20.460938z" stroke="none" fill="#FFFFFF" fill-rule="nonzero" />
    <path id=""  transform="matrix(1 0 0 -1 0 40)"  d="M20.753906 31.207031L20.753906 31.207031L20.753906 31.207031L31.421875 31.207031L31.421875 31.207031L31.421875 20.460938L31.421875 20.460938L20.753906 20.460938z" stroke="none" fill="#FFFFFF" fill-rule="nonzero" />
    <path id=""  transform="matrix(1 0 0 -1 0 40)"  d="M8.976562 19.359375L8.976562 19.359375L8.976562 19.359375L19.644531 19.359375L19.644531 19.359375L19.644531 8.6171875L19.644531 8.6171875L8.976562 8.6171875z" stroke="none" fill="#FFFFFF" fill-rule="nonzero" />
    <path id=""  transform="matrix(1 0 0 -1 0 40)"  d="M20.753906 19.359375L20.753906 19.359375L20.753906 19.359375L31.421875 19.359375L31.421875 19.359375L31.421875 8.6171875L31.421875 8.6171875L20.753906 8.6171875z" stroke="none" fill="#FFFFFF" fill-rule="nonzero" />
    <path id=""  transform="matrix(1 0 0 -1 0 40)"  d="M84.03906 24.421875L84.03906 24.421875L84.03906 24.421875L83.109375 24.421875L83.109375 24.421875L83.109375 27.179688L83.109375 27.179688L83.109375 27.179688C 83.109375 27.679688 83.03516 28.03906 82.88281 28.269531L82.88281 28.269531L82.88281 28.269531C 82.73047 28.5 82.46094 28.60156 82.09375 28.60156L82.09375 28.60156L82.09375 28.60156C 81.78516 28.60156 81.51953 28.460938 81.31641 28.179688L81.31641 28.179688L81.31641 28.179688C 81.09766 27.898438 80.99609 27.550781 80.99609 27.167969L80.99609 27.167969L80.99609 24.421875L80.99609 24.421875L80.06641 24.421875L80.06641 24.421875L80.06641 27.269531L80.06641 27.269531L80.06641 27.269531C 80.06641 28.152344 79.72266 28.60156 79.05078 28.60156L79.05078 28.60156L79.05078 28.60156C 78.73047 28.60156 78.46484 28.460938 78.26172 28.191406L78.26172 28.191406L78.26172 28.191406C 78.05859 27.921875 77.953125 27.578125 77.953125 27.152344L77.953125 27.152344L77.953125 24.410156L77.953125 24.410156L77.02734 24.410156L77.02734 24.410156L77.02734 29.269531L77.02734 29.269531L77.953125 29.269531L77.953125 29.269531L77.953125 28.511719L77.953125 28.511719L77.96875 28.511719L77.96875 28.511719L77.96875 28.511719C 78.3125 29.10156 78.82031 29.38281 79.46875 29.38281L79.46875 29.38281L79.46875 29.38281C 79.77734 29.38281 80.05469 29.292969 80.30859 29.128906L80.30859 29.128906L80.30859 29.128906C 80.55078 28.960938 80.73047 28.71875 80.84375 28.410156L80.84375 28.410156L80.84375 28.410156C 81.03516 28.742188 81.25391 28.988281 81.51953 29.152344L81.51953 29.152344L81.51953 29.152344C 81.78516 29.308594 82.09375 29.398438 82.44922 29.398438L82.44922 29.398438L82.44922 29.398438C 83.50391 29.398438 84.02734 28.742188 84.02734 27.421875L84.02734 27.421875L84.02734 24.421875zM74.77344 26.847656C 74.77344 27.421875 74.64453 27.859375 74.40234 28.152344L74.40234 28.152344L74.40234 28.152344C 74.14844 28.449219 73.80469 28.60156 73.34766 28.60156L73.34766 28.60156L73.34766 28.60156C 72.88672 28.60156 72.51953 28.449219 72.25 28.128906L72.25 28.128906L72.25 28.128906C 71.984375 27.82031 71.85547 27.371094 71.85547 26.808594L71.85547 26.808594L71.85547 26.808594C 71.85547 26.25781 71.984375 25.832031 72.25 25.527344L72.25 25.527344L72.25 25.527344C 72.51953 25.21875 72.875 25.0625 73.34766 25.0625L73.34766 25.0625L73.34766 25.0625C 73.81641 25.0625 74.171875 25.21875 74.41406 25.511719L74.41406 25.511719L74.41406 25.511719C 74.64453 25.832031 74.77344 26.269531 74.77344 26.847656M75.72656 26.871094C 75.72656 26.089844 75.49609 25.460938 75.05078 25L75.05078 25L75.05078 25C 74.60547 24.53906 74.00781 24.308594 73.26953 24.308594L73.26953 24.308594L73.26953 24.308594C 72.54297 24.308594 71.95703 24.53906 71.52734 24.988281L71.52734 24.988281L71.52734 24.988281C 71.09375 25.4375 70.875 26.03906 70.875 26.792969L70.875 26.792969L70.875 26.792969C 70.875 27.60156 71.10547 28.230469 71.55078 28.691406L71.55078 28.691406L71.55078 28.691406C 71.99609 29.152344 72.609375 29.38281 73.38281 29.38281L73.38281 29.38281L73.38281 29.38281C 74.109375 29.38281 74.68359 29.167969 75.08984 28.71875L75.08984 28.71875L75.08984 28.71875C 75.52344 28.269531 75.72656 27.652344 75.72656 26.871094M70.41797 28.332031C 70.36719 28.371094 70.265625 28.410156 70.13672 28.449219L70.13672 28.449219L70.13672 28.449219C 70.01172 28.472656 69.89453 28.5 69.80859 28.5L69.80859 28.5L69.80859 28.5C 69.47656 28.5 69.20703 28.347656 69.00391 28.050781L69.00391 28.050781L69.00391 28.050781C 68.80078 27.75781 68.69922 27.371094 68.69922 26.898438L68.69922 26.898438L68.69922 24.421875L68.69922 24.421875L67.76953 24.421875L67.76953 24.421875L67.76953 29.269531L67.76953 29.269531L68.69922 29.269531L68.69922 29.269531L68.69922 28.292969L68.69922 28.292969L68.72266 28.292969L68.72266 28.292969L68.72266 28.292969C 68.828125 28.628906 68.99219 28.88281 69.20703 29.078125L69.20703 29.078125L69.20703 29.078125C 69.42578 29.269531 69.67969 29.359375 69.96094 29.359375L69.96094 29.359375L69.96094 29.359375C 70.15234 29.359375 70.30469 29.332031 70.40625 29.292969L70.40625 29.292969L70.40625 28.332031zM66.99219 30.808594C 66.83984 30.88281 66.67578 30.9375 66.484375 30.9375L66.484375 30.9375L66.484375 30.9375C 65.96094 30.9375 65.70703 30.617188 65.70703 29.972656L65.70703 29.972656L65.70703 29.28125L65.70703 29.28125L66.80078 29.28125L66.80078 29.28125L66.80078 28.511719L66.80078 28.511719L65.70703 28.511719L65.70703 28.511719L65.70703 24.4375L65.70703 24.4375L64.77734 24.4375L64.77734 24.4375L64.77734 28.5L64.77734 28.5L63.964844 28.5L63.964844 28.5L63.964844 29.269531L63.964844 29.269531L64.77734 29.269531L64.77734 29.269531L64.77734 30.011719L64.77734 30.011719L64.77734 30.011719C 64.77734 30.527344 64.91797 30.9375 65.21094 31.242188L65.21094 31.242188L65.21094 31.242188C 65.50391 31.550781 65.89844 31.707031 66.40625 31.707031L66.40625 31.707031L66.40625 31.707031C 66.66016 31.707031 66.85156 31.679688 67.00391 31.617188L67.00391 31.617188L67.00391 30.808594zM60.90625 24.472656C 60.816406 24.421875 60.703125 24.38281 60.539062 24.359375L60.539062 24.359375L60.539062 24.359375C 60.38672 24.332031 60.246094 24.32031 60.117188 24.32031L60.117188 24.32031L60.117188 24.32031C 59.226562 24.32031 58.78125 24.82031 58.78125 25.808594L58.78125 25.808594L58.78125 28.5L58.78125 28.5L57.964844 28.5L57.964844 28.5L57.964844 29.269531L57.964844 29.269531L58.78125 29.269531L58.78125 29.269531L58.78125 30.421875L58.78125 30.421875L59.710938 30.71875L59.710938 30.71875L59.710938 29.28125L59.710938 29.28125L60.89453 29.28125L60.89453 29.28125L60.89453 28.511719L60.89453 28.511719L59.710938 28.511719L59.710938 28.511719L59.710938 25.972656L59.710938 25.972656L59.710938 25.972656C 59.710938 25.652344 59.76172 25.421875 59.86328 25.292969L59.86328 25.292969L59.86328 25.292969C 59.964844 25.167969 60.14453 25.10156 60.410156 25.10156L60.410156 25.10156L60.410156 25.10156C 60.589844 25.10156 60.753906 25.152344 60.89453 25.25781L60.89453 25.25781L60.89453 24.472656zM56.871094 24.421875L56.871094 24.421875L56.871094 24.421875L55.941406 24.421875L55.941406 24.421875L55.941406 29.269531L55.941406 29.269531L56.871094 29.269531zM57 30.988281C 57 30.832031 56.94922 30.707031 56.83203 30.589844L56.83203 30.589844L56.83203 30.589844C 56.71875 30.472656 56.578125 30.421875 56.414062 30.421875L56.414062 30.421875L56.414062 30.421875C 56.246094 30.421875 56.109375 30.472656 55.992188 30.589844L55.992188 30.589844L55.992188 30.589844C 55.878906 30.691406 55.828125 30.832031 55.828125 31L55.828125 31L55.828125 31C 55.828125 31.167969 55.890625 31.308594 56.003906 31.410156L56.003906 31.410156L56.003906 31.410156C 56.121094 31.511719 56.26172 31.578125 56.414062 31.578125L56.414062 31.578125L56.414062 31.578125C 56.566406 31.578125 56.70703 31.527344 56.820312 31.410156L56.820312 31.410156L56.820312 31.410156C 56.94922 31.28125 57 31.152344 57 30.988281M52.390625 24.472656C 52.30078 24.421875 52.1875 24.38281 52.01953 24.359375L52.01953 24.359375L52.01953 24.359375C 51.867188 24.332031 51.726562 24.32031 51.601562 24.32031L51.601562 24.32031L51.601562 24.32031C 50.710938 24.32031 50.265625 24.82031 50.265625 25.808594L50.265625 25.808594L50.265625 28.5L50.265625 28.5L49.44922 28.5L49.44922 28.5L49.44922 29.269531L49.44922 29.269531L50.265625 29.269531L50.265625 29.269531L50.265625 30.421875L50.265625 30.421875L51.191406 30.71875L51.191406 30.71875L51.191406 29.28125L51.191406 29.28125L52.378906 29.28125L52.378906 29.28125L52.378906 28.511719L52.378906 28.511719L51.191406 28.511719L51.191406 28.511719L51.191406 25.972656L51.191406 25.972656L51.191406 25.972656C 51.191406 25.652344 51.246094 25.421875 51.347656 25.292969L51.347656 25.292969L51.347656 25.292969C 51.44922 25.167969 51.625 25.10156 51.89453 25.10156L51.89453 25.10156L51.89453 25.10156C 52.070312 25.10156 52.23828 25.152344 52.378906 25.25781L52.378906 25.25781L52.378906 24.472656zM47.84375 27.32031C 47.84375 27.742188 47.742188 28.0625 47.55078 28.28125L47.55078 28.28125L47.55078 28.28125C 47.359375 28.5 47.09375 28.617188 46.73828 28.617188L46.73828 28.617188L46.73828 28.617188C 46.41797 28.617188 46.140625 28.5 45.898438 28.269531L45.898438 28.269531L45.898438 28.269531C 45.65625 28.03906 45.515625 27.71875 45.4375 27.32031zM48.773438 26.589844L48.773438 26.589844L48.773438 26.589844L45.4375 26.589844L45.4375 26.589844L45.4375 26.589844C 45.453125 26.10156 45.60547 25.730469 45.859375 25.460938L45.859375 25.460938L45.859375 25.460938C 46.125 25.207031 46.46875 25.0625 46.902344 25.0625L46.902344 25.0625L46.902344 25.0625C 47.476562 25.0625 47.972656 25.230469 48.40625 25.5625L48.40625 25.5625L48.40625 24.742188C 48.214844 24.617188 47.972656 24.5 47.679688 24.421875L47.679688 24.421875L47.679688 24.421875C 47.38672 24.347656 47.08203 24.308594 46.777344 24.308594L46.777344 24.308594L46.777344 24.308594C 46.05078 24.308594 45.476562 24.527344 45.08203 24.960938L45.08203 24.960938L45.08203 24.960938C 44.6875 25.398438 44.484375 26.011719 44.484375 26.808594L44.484375 26.808594L44.484375 26.808594C 44.484375 27.292969 44.585938 27.742188 44.777344 28.128906L44.777344 28.128906L44.777344 28.128906C 44.96875 28.527344 45.246094 28.832031 45.589844 29.050781L45.589844 29.050781L45.589844 29.050781C 45.933594 29.269531 46.328125 29.38281 46.75 29.38281L46.75 29.38281L46.75 29.38281C 47.375 29.38281 47.871094 29.179688 48.226562 28.769531L48.226562 28.769531L48.226562 28.769531C 48.58203 28.359375 48.76172 27.792969 48.76172 27.0625L48.76172 27.0625L48.76172 26.589844zM43.285156 24.88281C 42.61328 24.5 41.847656 24.308594 40.996094 24.308594L40.996094 24.308594L40.996094 24.308594C 40.347656 24.308594 39.773438 24.449219 39.265625 24.742188L39.265625 24.742188L39.265625 24.742188C 38.765625 25.027344 38.371094 25.4375 38.10547 25.960938L38.10547 25.960938L38.10547 25.960938C 37.839844 26.488281 37.69922 27.078125 37.69922 27.730469L37.69922 27.730469L37.69922 27.730469C 37.69922 28.421875 37.851562 29.050781 38.14453 29.589844L38.14453 29.589844L38.14453 29.589844C 38.4375 30.128906 38.85547 30.5625 39.402344 30.871094L39.402344 30.871094L39.402344 30.871094C 39.953125 31.179688 40.5625 31.332031 41.25 31.332031L41.25 31.332031L41.25 31.332031C 41.59375 31.332031 41.9375 31.292969 42.28125 31.230469L42.28125 31.230469L42.28125 31.230469C 42.625 31.167969 42.90625 31.078125 43.121094 30.972656L43.121094 30.972656L43.121094 29.949219C 42.61328 30.292969 41.964844 30.460938 41.171875 30.460938L41.171875 30.460938L41.171875 30.460938C 40.703125 30.460938 40.28125 30.347656 39.902344 30.117188L39.902344 30.117188L39.902344 30.117188C 39.51953 29.88281 39.226562 29.5625 39.023438 29.167969L39.023438 29.167969L39.023438 29.167969C 38.816406 28.75781 38.714844 28.292969 38.714844 27.78125L38.714844 27.78125L38.714844 27.78125C 38.714844 26.972656 38.933594 26.332031 39.351562 25.859375L39.351562 25.859375L39.351562 25.859375C 39.773438 25.38281 40.359375 25.152344 41.097656 25.152344L41.097656 25.152344L41.097656 25.152344C 41.566406 25.152344 41.98828 25.242188 42.34375 25.4375L42.34375 25.4375L42.34375 27.191406L42.34375 27.191406L40.90625 27.191406L40.90625 27.191406L40.90625 28.03906L40.90625 28.03906L43.285156 28.03906zM50.351562 19.972656L50.351562 19.972656L50.351562 19.972656L50.351562 8.6171875L50.351562 8.6171875L48.390625 8.6171875L48.390625 8.6171875L48.390625 17.511719L48.390625 17.511719L48.367188 17.511719L48.367188 17.511719L44.867188 8.6171875L44.867188 8.6171875L43.566406 8.6171875L43.566406 8.6171875L39.976562 17.511719L39.976562 17.511719L39.953125 17.511719L39.953125 17.511719L39.953125 8.6171875L39.953125 8.6171875L38.14453 8.6171875L38.14453 8.6171875L38.14453 19.972656L38.14453 19.972656L40.945312 19.972656L40.945312 19.972656L44.191406 11.550781L44.191406 11.550781L44.242188 11.550781L44.242188 11.550781L47.66797 19.972656zM98.00781 15.1796875L98.00781 15.1796875L98.00781 15.1796875L98.00781 11L98.00781 11L98.00781 11C 98.00781 10.128906 98.21094 9.488281 98.60547 9.050781L98.60547 9.050781L98.60547 9.050781C 99 8.6171875 99.609375 8.410156 100.41406 8.410156L100.41406 8.410156L100.41406 8.410156C 100.67969 8.410156 100.96094 8.4375 101.24219 8.5L101.24219 8.5L101.24219 8.5C 101.51953 8.5625 101.72266 8.6171875 101.83984 8.691406L101.83984 8.691406L101.83984 10.28125C 101.72266 10.207031 101.58594 10.140625 101.43359 10.089844L101.43359 10.089844L101.43359 10.089844C 101.27734 10.0390625 101.140625 10.011719 101.03516 10.011719L101.03516 10.011719L101.03516 10.011719C 100.65625 10.011719 100.36328 10.1171875 100.18359 10.3203125L100.18359 10.3203125L100.18359 10.3203125C 100.00391 10.527344 99.91797 10.8828125 99.91797 11.3828125L99.91797 11.3828125L99.91797 15.191406L99.91797 15.191406L101.85156 15.191406L101.85156 15.191406L101.85156 16.757812L101.85156 16.757812L99.92969 16.757812L99.92969 16.757812L99.92969 19.167969L99.92969 19.167969L98.01953 18.578125L98.01953 18.578125L98.01953 16.742188L98.01953 16.742188L95.17969 16.742188L95.17969 16.742188L95.17969 17.730469L95.17969 17.730469L95.17969 17.730469C 95.17969 18.21875 95.28125 18.589844 95.5 18.847656L95.5 18.847656L95.5 18.847656C 95.71484 19.101562 96.01953 19.21875 96.41406 19.21875L96.41406 19.21875L96.41406 19.21875C 96.62109 19.21875 96.796875 19.191406 96.96484 19.140625L96.96484 19.140625L96.96484 19.140625C 97.11719 19.089844 97.23047 19.039062 97.29297 19L97.29297 19L97.29297 20.652344C 97.15234 20.707031 97 20.730469 96.82422 20.757812L96.82422 20.757812L96.82422 20.757812C 96.64453 20.78125 96.44141 20.792969 96.21094 20.792969L96.21094 20.792969L96.21094 20.792969C 95.34766 20.792969 94.63281 20.527344 94.08594 19.972656L94.08594 19.972656L94.08594 19.972656C 93.53906 19.421875 93.25781 18.730469 93.25781 17.871094L93.25781 17.871094L93.25781 16.742188L93.25781 16.742188L91.91016 16.742188L91.91016 16.742188L91.91016 15.1796875L91.91016 15.1796875L93.25781 15.1796875L93.25781 15.1796875L93.25781 8.6015625L93.25781 8.6015625L95.17969 8.6015625L95.17969 8.6015625L95.17969 15.1796875zM85.390625 12.628906C 85.390625 11.78125 85.58203 11.128906 85.96484 10.6796875L85.96484 10.6796875L85.96484 10.6796875C 86.34375 10.230469 86.890625 10.011719 87.60547 10.011719L87.60547 10.011719L87.60547 10.011719C 88.29297 10.011719 88.828125 10.230469 89.18359 10.6796875L89.18359 10.6796875L89.18359 10.6796875C 89.53906 11.128906 89.73047 11.792969 89.73047 12.6796875L89.73047 12.6796875L89.73047 12.6796875C 89.73047 13.550781 89.53906 14.21875 89.171875 14.667969L89.171875 14.667969L89.171875 14.667969C 88.80078 15.1171875 88.265625 15.332031 87.59375 15.332031L87.59375 15.332031L87.59375 15.332031C 86.890625 15.332031 86.359375 15.1015625 85.96484 14.628906L85.96484 14.628906L85.96484 14.628906C 85.58203 14.152344 85.390625 13.5 85.390625 12.628906M83.41797 12.5625C 83.41797 13.910156 83.796875 14.972656 84.55078 15.769531L84.55078 15.769531L84.55078 15.769531C 85.30078 16.550781 86.359375 16.949219 87.69531 16.949219L87.69531 16.949219L87.69531 16.949219C 88.953125 16.949219 89.94922 16.5625 90.66016 15.808594L90.66016 15.808594L90.66016 15.808594C 91.375 15.050781 91.73047 14.027344 91.73047 12.7421875L91.73047 12.7421875L91.73047 12.7421875C 91.73047 11.421875 91.34766 10.371094 90.59766 9.589844L90.59766 9.589844L90.59766 9.589844C 89.84766 8.808594 88.81641 8.421875 87.515625 8.421875L87.515625 8.421875L87.515625 8.421875C 86.26953 8.421875 85.26172 8.792969 84.53516 9.5390625L84.53516 9.5390625L84.53516 9.5390625C 83.78516 10.269531 83.41797 11.28125 83.41797 12.5625M79.11328 14.6171875C 79.11328 14.347656 79.203125 14.128906 79.36719 13.972656L79.36719 13.972656L79.36719 13.972656C 79.546875 13.8203125 79.92969 13.628906 80.515625 13.3828125L80.515625 13.3828125L80.515625 13.3828125C 81.27734 13.078125 81.8125 12.730469 82.11719 12.347656L82.11719 12.347656L82.11719 12.347656C 82.421875 11.9609375 82.578125 11.5 82.578125 10.9609375L82.578125 10.9609375L82.578125 10.9609375C 82.578125 10.191406 82.28516 9.578125 81.69922 9.1171875L81.69922 9.1171875L81.69922 9.1171875C 81.11328 8.652344 80.32422 8.421875 79.328125 8.421875L79.328125 8.421875L79.328125 8.421875C 79 8.421875 78.62891 8.4609375 78.22266 8.550781L78.22266 8.550781L78.22266 8.550781C 77.81641 8.628906 77.47266 8.7421875 77.19141 8.859375L77.19141 8.859375L77.19141 10.7421875C 77.53516 10.5 77.90234 10.308594 78.3125 10.167969L78.3125 10.167969L78.3125 10.167969C 78.70703 10.027344 79.07422 9.949219 79.39453 9.949219L79.39453 9.949219L79.39453 9.949219C 79.828125 9.949219 80.14453 10.011719 80.34766 10.128906L80.34766 10.128906L80.34766 10.128906C 80.55078 10.2421875 80.65234 10.449219 80.65234 10.7421875L80.65234 10.7421875L80.65234 10.7421875C 80.65234 11.011719 80.55078 11.230469 80.33594 11.410156L80.33594 11.410156L80.33594 11.410156C 80.12109 11.589844 79.72266 11.808594 79.125 12.0390625L79.125 12.0390625L79.125 12.0390625C 78.42578 12.332031 77.92969 12.667969 77.63672 13.0390625L77.63672 13.0390625L77.63672 13.0390625C 77.34375 13.410156 77.19141 13.8828125 77.19141 14.449219L77.19141 14.449219L77.19141 14.449219C 77.19141 15.1796875 77.484375 15.78125 78.05859 16.257812L78.05859 16.257812L78.05859 16.257812C 78.62891 16.730469 79.37891 16.960938 80.30859 16.960938L80.30859 16.960938L80.30859 16.960938C 80.58984 16.960938 80.91016 16.9375 81.265625 16.871094L81.265625 16.871094L81.265625 16.871094C 81.62109 16.808594 81.91406 16.730469 82.14453 16.628906L82.14453 16.628906L82.14453 14.808594C 81.890625 14.972656 81.59766 15.1171875 81.265625 15.2421875L81.265625 15.2421875L81.265625 15.2421875C 80.93359 15.359375 80.58984 15.421875 80.27344 15.421875L80.27344 15.421875L80.27344 15.421875C 79.91406 15.421875 79.62109 15.347656 79.43359 15.207031L79.43359 15.207031L79.43359 15.207031C 79.21484 15.0625 79.11328 14.859375 79.11328 14.6171875M69.96094 12.628906C 69.96094 11.78125 70.15234 11.128906 70.53125 10.6796875L70.53125 10.6796875L70.53125 10.6796875C 70.91406 10.230469 71.46094 10.011719 72.17578 10.011719L72.17578 10.011719L72.17578 10.011719C 72.86328 10.011719 73.39844 10.230469 73.75391 10.6796875L73.75391 10.6796875L73.75391 10.6796875C 74.109375 11.128906 74.30078 11.792969 74.30078 12.6796875L74.30078 12.6796875L74.30078 12.6796875C 74.30078 13.550781 74.109375 14.21875 73.74219 14.667969L73.74219 14.667969L73.74219 14.667969C 73.37109 15.1171875 72.83594 15.332031 72.16016 15.332031L72.16016 15.332031L72.16016 15.332031C 71.46094 15.332031 70.92578 15.1015625 70.53125 14.628906L70.53125 14.628906L70.53125 14.628906C 70.15234 14.152344 69.96094 13.5 69.96094 12.628906M67.97266 12.5625C 67.97266 13.910156 68.35547 14.972656 69.10547 15.769531L69.10547 15.769531L69.10547 15.769531C 69.859375 16.550781 70.91406 16.949219 72.25 16.949219L72.25 16.949219L72.25 16.949219C 73.51172 16.949219 74.50391 16.5625 75.21875 15.808594L75.21875 15.808594L75.21875 15.808594C 75.92969 15.050781 76.28516 14.027344 76.28516 12.7421875L76.28516 12.7421875L76.28516 12.7421875C 76.28516 11.421875 75.90625 10.371094 75.15234 9.589844L75.15234 9.589844L75.15234 9.589844C 74.40234 8.808594 73.37109 8.421875 72.07422 8.421875L72.07422 8.421875L72.07422 8.421875C 70.82422 8.421875 69.82031 8.792969 69.09375 9.5390625L69.09375 9.5390625L69.09375 9.5390625C 68.34375 10.269531 67.97266 11.28125 67.97266 12.5625M67.16016 16.882812C 67.3125 16.882812 67.453125 16.871094 67.56641 16.859375L67.56641 16.859375L67.56641 16.859375C 67.67969 16.832031 67.796875 16.808594 67.87109 16.78125L67.87109 16.78125L67.87109 14.847656C 67.76953 14.921875 67.62891 14.988281 67.4375 15.050781L67.4375 15.050781L67.4375 15.050781C 67.24609 15.1171875 67.01953 15.152344 66.73828 15.152344L66.73828 15.152344L66.73828 15.152344C 66.265625 15.152344 65.87109 14.9609375 65.55469 14.5625L65.55469 14.5625L65.55469 14.5625C 65.234375 14.167969 65.07031 13.5625 65.07031 12.730469L65.07031 12.730469L65.07031 8.6171875L65.07031 8.6171875L63.171875 8.6171875L63.171875 8.6171875L63.171875 16.757812L63.171875 16.757812L65.07031 16.757812L65.07031 16.757812L65.07031 15.472656L65.07031 15.472656L65.09766 15.472656L65.09766 15.472656L65.09766 15.472656C 65.27344 15.921875 65.52734 16.269531 65.88672 16.511719L65.88672 16.511719L65.88672 16.511719C 66.24219 16.757812 66.66016 16.882812 67.16016 16.882812M59.86328 10.011719C 60.14453 10.011719 60.460938 10.078125 60.804688 10.207031L60.804688 10.207031L60.804688 10.207031C 61.148438 10.332031 61.453125 10.511719 61.746094 10.730469L61.746094 10.730469L61.746094 8.949219C 61.441406 8.769531 61.097656 8.640625 60.714844 8.550781L60.714844 8.550781L60.714844 8.550781C 60.335938 8.4609375 59.902344 8.410156 59.441406 8.410156L59.441406 8.410156L59.441406 8.410156C 58.257812 8.410156 57.29297 8.792969 56.539062 9.550781L56.539062 9.550781L56.539062 9.550781C 55.789062 10.308594 55.421875 11.28125 55.421875 12.449219L55.421875 12.449219L55.421875 12.449219C 55.421875 13.7578125 55.80078 14.832031 56.566406 15.6796875L56.566406 15.6796875L56.566406 15.6796875C 57.328125 16.527344 58.398438 16.949219 59.80078 16.949219L59.80078 16.949219L59.80078 16.949219C 60.15625 16.949219 60.51172 16.898438 60.882812 16.808594L60.882812 16.808594L60.882812 16.808594C 61.25 16.71875 61.53125 16.601562 61.746094 16.488281L61.746094 16.488281L61.746094 14.652344C 61.453125 14.871094 61.148438 15.0390625 60.84375 15.152344L60.84375 15.152344L60.84375 15.152344C 60.539062 15.269531 60.21875 15.332031 59.902344 15.332031L59.902344 15.332031L59.902344 15.332031C 59.152344 15.332031 58.55078 15.089844 58.08203 14.6015625L58.08203 14.6015625L58.08203 14.6015625C 57.621094 14.1171875 57.39453 13.449219 57.39453 12.6171875L57.39453 12.6171875L57.39453 12.6171875C 57.39453 11.792969 57.609375 11.152344 58.054688 10.691406L58.054688 10.691406L58.054688 10.691406C 58.5 10.230469 59.097656 10.011719 59.86328 10.011719M54.08203 8.6171875L54.08203 8.6171875L54.08203 8.6171875L52.1875 8.6171875L52.1875 8.6171875L52.1875 16.757812L52.1875 16.757812L54.08203 16.757812zM51.984375 19.101562C 51.984375 19.421875 52.097656 19.679688 52.328125 19.898438L52.328125 19.898438L52.328125 19.898438C 52.554688 20.117188 52.82422 20.21875 53.140625 20.21875L53.140625 20.21875L53.140625 20.21875C 53.472656 20.21875 53.753906 20.101562 53.96875 19.882812L53.96875 19.882812L53.96875 19.882812C 54.183594 19.667969 54.30078 19.398438 54.30078 19.101562L54.30078 19.101562L54.30078 19.101562C 54.30078 18.792969 54.183594 18.527344 53.95703 18.320312L53.95703 18.320312L53.95703 18.320312C 53.726562 18.101562 53.460938 18 53.128906 18L53.128906 18L53.128906 18C 52.796875 18 52.53125 18.101562 52.30078 18.320312L52.30078 18.320312L52.30078 18.320312C 52.097656 18.539062 51.984375 18.792969 51.984375 19.101562" stroke="none" fill="#FFFFFF" fill-rule="nonzero" />
	</g>
</g>
</svg>